<svg version="1.0" xmlns="http://www.w3.org/2000/svg" width="1240.000000ptpx" height="288.000000ptpx" viewBox="0 0 1240.000000 288.000000" preserveAspectRatio="xMidYMid meet" transform="rotate(0) scale(1, 1)">
<metadata>
Created by potrace 1.15, written by Peter Selinger 2001-2017
</metadata>
<g transform="translate(0.000000,288.000000) scale(0.100000,-0.100000)" fill="#ffffff" stroke="none">
<path d="M5277 2653 c-4 -3 -7 -179 -7 -389 l0 -383 -44 47 c-87 92 -209 135&#xA;-366 129 -146 -5 -219 -28 -333 -102 -63 -40 -93 -72 -141 -147 -95 -151 -134&#xA;-364 -100 -557 34 -192 156 -355 329 -436 53 -25 216 -65 266 -65 51 0 210 42&#xA;255 67 25 14 72 50 105 80 l59 55 0 -81 0 -81 140 0 140 0 0 935 0 935 -148 0&#xA;c-82 0 -152 -3 -155 -7z m-256 -853 c38 -10 85 -28 104 -40 54 -33 124 -117&#xA;136 -163 6 -23 15 -50 21 -61 12 -22 12 -254 0 -270 -5 -6 -14 -29 -20 -51&#xA;-28 -96 -145 -185 -270 -206 -163 -27 -299 38 -387 186 -30 50 -30 50 -30 210&#xA;0 160 0 160 32 220 49 94 106 140 218 175 78 24 111 24 196 0z"/>
<path d="M6401 2500 c-46 -11 -162 -72 -203 -107 -18 -15 -71 -66 -118 -113&#xA;-128 -128 -298 -396 -335 -529 -13 -44 18 -17 33 30 32 96 129 202 229 249 68&#xA;32 223 70 288 70 45 0 215 -35 243 -49 9 -5 40 -20 67 -32 99 -45 197 -172&#xA;224 -289 6 -26 11 -180 11 -357 0 -172 4 -313 8 -313 5 0 14 30 21 68 8 37 17&#xA;74 22 83 13 26 42 245 48 374 4 77 10 113 15 100 4 -11 11 -29 16 -40 4 -11&#xA;23 -63 41 -115 18 -52 35 -99 39 -105 4 -5 13 -32 20 -60 8 -27 20 -61 27 -75&#xA;7 -14 13 -31 13 -38 0 -8 6 -28 14 -45 7 -18 28 -75 46 -127 17 -52 36 -104&#xA;40 -115 5 -11 20 -53 34 -94 14 -40 26 -75 28 -76 8 -8 260 -7 267 1 4 5 20&#xA;50 35 99 16 50 32 99 36 110 11 27 58 183 66 220 4 17 10 35 14 40 4 6 10 24&#xA;14 40 11 49 57 199 66 216 5 9 12 33 16 54 9 48 21 35 44 -51 10 -38 26 -96&#xA;35 -129 9 -33 23 -74 31 -92 7 -17 14 -36 14 -42 0 -6 9 -37 19 -68 11 -32 31&#xA;-98 46 -148 15 -49 33 -103 40 -120 7 -16 16 -46 20 -65 15 -70 12 -69 160&#xA;-72 126 -3 135 -2 144 17 5 11 41 117 80 235 39 118 75 222 80 230 5 9 12 31&#xA;16 50 4 19 13 49 20 65 7 17 36 104 65 195 30 91 56 170 60 175 4 6 13 32 19&#xA;60 7 27 16 54 20 60 5 5 14 34 21 63 6 28 16 55 21 58 5 3 9 12 9 20 0 12 -24&#xA;14 -152 12 l-152 -3 -14 -50 c-7 -27 -22 -81 -32 -120 -11 -38 -29 -101 -40&#xA;-140 -12 -38 -30 -100 -41 -137 -34 -120 -57 -201 -79 -273 -12 -38 -24 -82&#xA;-27 -97 -3 -16 -9 -28 -14 -28 -5 0 -9 2 -9 5 0 5 -33 115 -77 260 -13 44 -31&#xA;105 -39 135 -8 30 -19 64 -23 75 -5 11 -21 61 -36 110 -44 147 -66 219 -76&#xA;243 -8 21 -13 22 -138 22 -126 0 -130 -1 -136 -22 -3 -13 -10 -32 -15 -43 -5&#xA;-11 -16 -47 -25 -80 -9 -33 -25 -90 -36 -127 -10 -38 -28 -99 -39 -138 -11&#xA;-39 -29 -103 -41 -142 -11 -40 -28 -102 -37 -138 -10 -36 -20 -70 -24 -75 -3&#xA;-6 -9 -27 -13 -48 -9 -49 -22 -47 -35 6 -6 23 -20 71 -30 107 -10 36 -24 83&#xA;-30 105 -6 22 -21 72 -32 110 -22 78 -48 175 -75 280 -10 39 -21 75 -24 80 -4&#xA;6 -12 36 -19 68 l-11 57 -129 0 c-143 0 -131 -6 -145 75 -19 113 -73 233 -134&#xA;299 -69 73 -126 97 -241 102 -52 2 -110 -1 -129 -6z"/>
<path d="M860 2051 c-8 -5 -33 -12 -54 -16 -58 -10 -124 -46 -180 -99 -28 -25&#xA;-51 -46 -53 -46 -2 0 -3 32 -3 70 l0 71 -135 -3 c-74 -2 -135 -6 -135 -10 0&#xA;-5 0 -401 0 -882 l0 -874 135 1 135 1 0 338 c0 186 2 338 5 338 3 0 28 -22 55&#xA;-49 64 -64 152 -106 265 -126 84 -15 98 -15 185 0 103 18 173 47 263 109 72&#xA;49 112 97 164 196 144 272 97 608 -115 832 -50 52 -176 121 -257 139 -63 15&#xA;-255 22 -275 10z m163 -247 c121 -36 189 -91 233 -187 28 -60 29 -68 29 -212&#xA;0 -143 -1 -152 -27 -206 -74 -151 -232 -223 -406 -187 -148 30 -232 114 -266&#xA;265 -21 95 -20 171 4 265 36 142 92 204 235 254 74 26 130 29 198 8z"/>
<path d="M2107 2040 c-151 -40 -243 -107 -300 -219 -19 -37 -38 -87 -42 -110&#xA;l-7 -41 135 0 135 0 7 29 c7 34 45 71 105 102 38 20 60 24 145 24 94 0 103 -2&#xA;147 -30 58 -37 88 -75 95 -119 14 -88 -22 -109 -218 -131 -270 -30 -313 -37&#xA;-376 -66 -24 -10 -45 -19 -48 -19 -12 0 -71 -47 -112 -90 -114 -119 -109 -356&#xA;9 -485 59 -65 130 -98 259 -121 94 -16 98 -16 203 5 59 12 120 29 134 38 102&#xA;62 152 103 152 124 0 5 6 9 13 9 9 0 11 -19 9 -75 l-4 -75 136 0 136 0 0 439&#xA;c0 251 -4 461 -10 491 -14 72 -53 149 -98 192 -54 52 -155 107 -231 125 -98&#xA;24 -289 26 -374 3z m421 -764 c-4 -103 -7 -118 -31 -154 -57 -87 -160 -132&#xA;-302 -132 -88 0 -140 21 -177 71 -43 58 -31 174 23 218 36 28 145 56 256 65&#xA;45 4 110 16 145 26 97 29 91 36 86 -94z"/>
<path d="M3540 2040 c-77 -24 -142 -64 -184 -110 l-36 -40 0 70 0 70 -145 0&#xA;-145 0 0 -618 c0 -340 2 -621 4 -623 2 -2 63 -3 135 -1 l130 3 4 327 c3 233 9&#xA;352 20 412 24 137 91 233 189 270 136 52 267 -7 323 -146 18 -45 19 -80 23&#xA;-456 l3 -408 140 0 139 0 0 403 c0 375 -7 512 -29 555 -4 9 -20 42 -34 72 -37&#xA;78 -69 118 -129 160 -109 76 -280 102 -408 60z"/>
<path d="M9228 2055 c-4 -4 -26 -11 -50 -16 -24 -5 -81 -28 -128 -51 -112 -55&#xA;-222 -162 -268 -261 -18 -37 -32 -73 -32 -80 0 -7 -4 -17 -9 -22 -38 -39 -39&#xA;-378 -2 -453 4 -9 23 -47 40 -85 53 -110 155 -207 291 -275 25 -12 97 -32 160&#xA;-43 112 -20 118 -20 225 -4 147 22 232 63 335 161 42 40 83 85 90 101 8 15 18&#xA;30 21 33 3 3 13 24 22 48 l17 42 -153 0 -152 0 -28 -35 c-100 -126 -327 -152&#xA;-472 -54 -70 47 -122 131 -132 212 l-6 47 488 0 488 0 -6 123 c-5 126 -26 202&#xA;-84 313 -63 119 -224 243 -368 281 -61 17 -275 30 -287 18z m267 -257 c84 -44&#xA;157 -137 181 -234 l6 -24 -341 0 c-383 0 -358 -6 -320 78 42 91 97 142 203&#xA;190 72 32 198 27 271 -10z"/>
<path d="M10480 2040 c-83 -23 -154 -59 -207 -105 -48 -41 -108 -154 -118&#xA;-222 l-7 -43 130 0 c128 0 130 0 136 23 10 41 47 77 105 105 49 23 69 26 161&#xA;27 98 0 108 -2 147 -27 81 -53 121 -134 90 -182 -27 -41 -74 -56 -217 -71&#xA;-242 -25 -323 -41 -406 -81 -92 -44 -147 -91 -182 -158 -25 -47 -27 -60 -27&#xA;-171 0 -111 2 -124 28 -172 59 -114 141 -166 302 -194 105 -19 114 -19 205 -3&#xA;117 20 206 61 272 126 27 26 50 48 52 48 1 0 2 -33 2 -72 l-1 -73 133 0 134 0&#xA;-2 455 c0 250 -5 471 -9 490 -28 115 -102 197 -239 265 -101 50 -361 69 -482&#xA;35z m447 -747 c-6 -117 -27 -173 -84 -224 -79 -72 -284 -104 -372 -59 -44 22&#xA;-88 70 -97 106 -11 44 3 105 34 143 35 43 102 64 287 86 66 8 138 21 160 30&#xA;78 28 79 28 72 -82z"/>
<path d="M11920 2037 c-79 -39 -127 -75 -161 -122 -18 -25 -36 -45 -41 -45 -4&#xA;0 -8 36 -8 80 l0 80 -140 0 -140 0 0 -618 c0 -340 2 -621 4 -623 2 -2 67 -2&#xA;143 1 l138 5 5 390 c5 384 5 391 29 443 13 28 38 65 56 81 68 60 247 91 315&#xA;56 17 -9 30 -12 31 -8 0 5 0 73 0 153 l0 145 -93 2 c-78 1 -100 -2 -138 -20z"/>
<path d="M6215 1850 c-11 -4 -36 -14 -54 -21 -49 -18 -94 -61 -116 -109 l-18&#xA;-40 -138 0 -138 0 -10 -57 c-6 -32 -15 -71 -20 -88 -5 -16 -14 -79 -21 -140&#xA;-6 -60 -15 -143 -20 -183 -15 -108 -12 -175 9 -289 22 -111 41 -156 107 -249&#xA;80 -114 163 -161 298 -173 92 -7 216 1 251 18 11 5 51 23 90 41 89 40 160 95&#xA;219 169 25 33 46 62 46 65 0 3 -27 6 -60 6 l-60 0 0 80 0 80 -58 -57 c-76 -76&#xA;-144 -110 -262 -130 -118 -20 -232 -7 -314 35 -74 38 -157 126 -178 188 -19&#xA;56 -25 201 -9 232 5 9 17 36 26 59 17 41 113 143 134 143 5 0 16 6 23 13 27&#xA;27 155 59 288 73 257 25 283 30 307 58 44 51 35 184 -15 229 -41 37 -112 57&#xA;-200 56 -48 0 -96 -4 -107 -9z"/>
<path d="M6540 1407 c-50 -34 -115 -55 -190 -62 -125 -11 -249 -44 -286 -77&#xA;-61 -54 -65 -150 -8 -209 35 -37 121 -69 182 -69 26 0 83 12 126 26 64 22 89&#xA;36 131 78 47 46 54 58 69 126 10 44 16 103 14 143 l-3 67 -35 -23z"/>
</g>
</svg>